<?xml version="1.0" encoding="UTF-8" standalone="no"?>
<!-- Created with Inkscape (http://www.inkscape.org/) -->

<svg
   width="277.8743"
   height="378.95212"
   viewBox="0 0 73.521008 100.26442"
   version="1.1"
   id="svg5"
   inkscape:version="1.1.2 (0a00cf5339, 2022-02-04)"
   sodipodi:docname="logo.svg"
   xmlns:inkscape="http://www.inkscape.org/namespaces/inkscape"
   xmlns:sodipodi="http://sodipodi.sourceforge.net/DTD/sodipodi-0.dtd"
   xmlns="http://www.w3.org/2000/svg"
   xmlns:svg="http://www.w3.org/2000/svg">
  <sodipodi:namedview
     id="namedview7"
     pagecolor="#505050"
     bordercolor="#eeeeee"
     borderopacity="1"
     inkscape:pageshadow="0"
     inkscape:pageopacity="0"
     inkscape:pagecheckerboard="0"
     inkscape:document-units="mm"
     showgrid="false"
     inkscape:zoom="0.90583674"
     inkscape:cx="273.85772"
     inkscape:cy="194.73825"
     inkscape:window-width="1888"
     inkscape:window-height="1016"
     inkscape:window-x="16"
     inkscape:window-y="48"
     inkscape:window-maximized="0"
     inkscape:current-layer="layer1"
     units="px"
     width="500px"
     fit-margin-top="0"
     fit-margin-left="0"
     fit-margin-right="0"
     fit-margin-bottom="0" />
  <defs
     id="defs2">
    <inkscape:path-effect
       effect="bspline"
       id="path-effect1597"
       is_visible="true"
       lpeversion="1"
       weight="33.333333"
       steps="2"
       helper_size="0"
       apply_no_weight="true"
       apply_with_weight="true"
       only_selected="false" />
    <inkscape:path-effect
       effect="bspline"
       id="path-effect1347"
       is_visible="true"
       lpeversion="1"
       weight="33.333333"
       steps="2"
       helper_size="0"
       apply_no_weight="true"
       apply_with_weight="true"
       only_selected="false" />
    <inkscape:path-effect
       effect="bspline"
       id="path-effect1343"
       is_visible="true"
       lpeversion="1"
       weight="33.333333"
       steps="2"
       helper_size="0"
       apply_no_weight="true"
       apply_with_weight="true"
       only_selected="false" />
    <inkscape:path-effect
       effect="bspline"
       id="path-effect1339"
       is_visible="true"
       lpeversion="1"
       weight="33.333333"
       steps="2"
       helper_size="0"
       apply_no_weight="true"
       apply_with_weight="true"
       only_selected="false" />
    <inkscape:path-effect
       effect="bspline"
       id="path-effect1222"
       is_visible="true"
       lpeversion="1"
       weight="33.333333"
       steps="2"
       helper_size="0"
       apply_no_weight="true"
       apply_with_weight="true"
       only_selected="false" />
    <inkscape:path-effect
       effect="bspline"
       id="path-effect1105"
       is_visible="true"
       lpeversion="1"
       weight="33.333333"
       steps="2"
       helper_size="0"
       apply_no_weight="true"
       apply_with_weight="true"
       only_selected="false" />
    <inkscape:path-effect
       effect="bspline"
       id="path-effect988"
       is_visible="true"
       lpeversion="1"
       weight="33.333333"
       steps="2"
       helper_size="0"
       apply_no_weight="true"
       apply_with_weight="true"
       only_selected="false" />
    <inkscape:path-effect
       effect="bspline"
       id="path-effect871"
       is_visible="true"
       lpeversion="1"
       weight="33.333333"
       steps="2"
       helper_size="0"
       apply_no_weight="true"
       apply_with_weight="true"
       only_selected="false" />
  </defs>
  <g
     inkscape:label="Layer 1"
     inkscape:groupmode="layer"
     id="layer1"
     transform="translate(-30.738089,-17.729157)">
    <path
       style="fill:#333333;fill-opacity:1;stroke:#000000;stroke-width:2.00000272;stroke-linecap:butt;stroke-linejoin:miter;stroke-miterlimit:4;stroke-dasharray:none;stroke-opacity:1"
       d="m 56.93285,80.85812 c -0.292073,1.511781 -0.584186,3.023767 -0.967204,4.666706 -0.383018,1.642939 -0.856953,3.416988 -1.350873,5.446773 -0.493921,2.029785 -1.0078,4.315163 -1.428874,6.358707 -0.421073,2.043545 -0.749324,3.845124 -0.928543,5.251444 -0.179218,1.40632 -0.209427,2.41725 -0.218227,3.21141 -0.0088,0.79417 0.0038,1.37149 0.18367,2.1328 0.179875,0.76132 0.526899,1.70653 1.03331,2.62308 0.506411,0.91654 1.172072,1.80439 1.973704,2.6479 0.801633,0.8435 1.739121,1.64267 2.920918,2.28607 1.181798,0.6434 2.60779,1.13114 4.081253,1.42437 1.473463,0.29323 2.994337,0.39204 4.399727,0.30642 1.405389,-0.0856 2.695288,-0.35561 4.214581,-1.10402 1.519292,-0.74842 3.268032,-1.97523 4.514236,-3.14886 1.246204,-1.17362 1.989897,-2.29408 2.629627,-3.55985 0.639729,-1.26577 1.175469,-2.67684 1.531333,-4.16834 0.355864,-1.49149 0.531806,-3.06341 0.536269,-4.56423 0.0045,-1.500823 -0.16261,-2.930512 -0.433685,-4.529666 C 79.352998,94.53968 78.97791,92.771146 78.587585,91.095742 78.197259,89.420338 77.791704,87.838157 77.493327,86.71904 77.19495,85.599922 77.003665,84.943612 76.812467,84.287602"
       id="path1103"
       sodipodi:nodetypes="ccccccccccccccccccccc"
       inkscape:original-d="m 56.93285,80.85812 c 0,0 -0.583882,3.023826 -0.87622,4.535343 -0.473689,1.774386 -0.947624,3.548435 -1.421834,5.322258 -0.513636,2.285732 -1.027515,4.57111 -1.541669,6.856269 -0.327998,1.801916 -0.656248,3.6035 -0.984771,5.40485 -0.02995,1.01124 -0.06016,2.02217 -0.09063,3.03287 0.01286,0.57761 0.02545,1.15493 0.03779,1.732 0.347302,0.94552 0.694327,1.89073 1.041095,2.83569 0.665951,0.88815 1.331611,1.776 1.99702,2.6636 0.937792,0.79947 1.875284,1.59863 2.812529,2.39755 1.426315,0.48802 2.852308,0.97575 4.278066,1.46323 1.521203,0.0991 3.042079,0.19788 4.562721,0.29643 1.290217,-0.26973 2.580116,-0.53971 3.869777,-0.80996 1.749073,-1.22659 3.497813,-2.4534 5.246323,-3.6805 0.743987,-1.12025 1.487683,-2.24071 2.231128,-3.36146 0.536024,-1.41087 1.071766,-2.82194 1.607253,-4.2333 0.176213,-1.57172 0.352155,-3.14364 0.527839,-4.71586 C 80.06245,99.16765 79.895376,97.737961 79.728035,96.307978 79.353197,94.539638 78.97811,92.771104 78.602751,91.002272 78.197444,89.420291 77.791888,87.83811 77.38606,86.255631 77.195123,85.599872 76.812467,84.287602 76.812467,84.287602"
       inkscape:path-effect="#path-effect1105" />
    <path
       style="fill:#ad9bca;fill-opacity:1;stroke:#000000;stroke-width:2.00000272;stroke-linecap:butt;stroke-linejoin:miter;stroke-miterlimit:4;stroke-dasharray:none;stroke-opacity:1"
       d="m 58.336875,65.67178 c -0.158851,0.281715 -0.317752,0.563517 -0.664448,0.945299 -0.346696,0.381783 -0.881278,0.863714 -1.608142,1.428589 -0.726864,0.564875 -1.645997,1.212679 -2.517027,1.961347 -0.87103,0.748668 -1.693849,1.598112 -2.296845,2.400718 -0.602996,0.802607 -0.986092,1.558233 -1.197205,2.234011 -0.211113,0.675779 -0.250272,1.271534 -0.145577,1.759665 0.104695,0.488131 0.353017,0.868551 0.817838,1.238414 0.464821,0.369863 1.145993,0.729285 1.883965,1.062589 0.737972,0.333304 1.532696,0.640514 2.380232,1.062017 0.847535,0.421504 1.747838,0.957211 2.605132,1.492277 0.857295,0.535065 1.67154,1.069443 2.616717,1.618164 0.945177,0.548721 2.021222,1.111792 3.097262,1.533842 1.07604,0.422051 2.152015,0.703143 3.439792,0.885394 1.287778,0.182251 2.787312,0.265717 4.19585,0.184853 1.408537,-0.08086 2.726069,-0.325993 3.975241,-0.654529 1.249171,-0.328536 2.429959,-0.740441 3.395577,-1.175551 0.965617,-0.435111 1.716089,-0.89341 2.378971,-1.444624 0.662883,-0.551214 1.238229,-1.19537 1.666045,-1.845288 0.427817,-0.649917 0.708121,-1.305668 0.738997,-1.865574 0.03088,-0.559906 -0.187878,-1.024128 -0.72537,-1.67681 C 81.836388,76.1639 80.980082,75.322859 80.1721,74.534181 79.364117,73.745503 78.604506,73.009239 77.914875,72.218306 77.225244,71.427372 76.605683,70.581779 76.15706,69.860117 75.708437,69.138454 75.430847,68.540741 75.257658,67.968574 75.084469,67.396407 75.015764,66.849551 74.947094,66.302976"
       id="path986"
       sodipodi:nodetypes="cccccccccccccccccccccccccc"
       inkscape:original-d="m 58.336875,65.67178 c 0,0 -0.317438,0.563694 -0.476554,0.845144 -0.534339,0.482216 -1.068922,0.964147 -1.603783,1.445826 -0.918905,0.648094 -1.838039,1.295897 -2.757455,1.943452 -0.822587,0.849741 -1.645404,1.699186 -2.468505,2.548382 -0.382844,0.755917 -0.765939,1.511543 -1.149307,2.266918 -0.03889,0.59604 -0.07805,1.191795 -0.117478,1.787295 0.248597,0.380701 0.496919,0.761121 0.744982,1.141285 0.681464,0.359701 1.362636,0.719122 2.043557,1.078289 0.79502,0.307485 1.589744,0.614695 2.384216,0.921646 0.900605,0.535996 1.800908,1.071703 2.700965,1.607156 0.814538,0.534662 1.628783,1.069039 2.442776,1.603161 1.076351,0.563356 2.152396,1.126427 3.228197,1.689243 1.076283,0.281368 2.152258,0.562462 3.227993,0.843296 1.499854,0.08373 2.999388,0.167198 4.498684,0.250401 1.31785,-0.244874 2.635382,-0.490003 3.952677,-0.735404 1.181102,-0.411657 2.36189,-0.823563 3.54244,-1.235741 0.750763,-0.458052 1.501235,-0.91635 2.251456,-1.374921 0.575632,-0.643919 1.150979,-1.288074 1.726073,-1.932509 0.28058,-0.655513 0.560884,-1.311264 0.84093,-1.967293 -0.218498,-0.463973 -0.437253,-0.928195 -0.656278,-1.392693 -0.856075,-0.840811 -1.71238,-1.681853 -2.568969,-2.523175 -0.759378,-0.736031 -1.518989,-1.472295 -2.27888,-2.208837 -0.619323,-0.845362 -1.238885,-1.690954 -1.858722,-2.53683 -0.277336,-0.597471 -0.554926,-1.195184 -0.832786,-1.793171 -0.06841,-0.546321 -0.20601,-1.639724 -0.20601,-1.639724"
       inkscape:path-effect="#path-effect988" />
    <path
       style="fill:none;stroke:#000000;stroke-width:2.00000272;stroke-linecap:butt;stroke-linejoin:miter;stroke-miterlimit:4;stroke-dasharray:none;stroke-opacity:1"
       d="m 52.554764,78.560961 c 0.301131,-0.622056 0.602316,-1.244225 1.109346,-1.95587 0.507031,-0.711646 1.219841,-1.512644 2.023264,-2.379294 0.803424,-0.86665 1.697402,-1.79889 2.568093,-2.826479 0.870691,-1.02759 1.718066,-2.1505 2.283542,-2.915841 0.565476,-0.765341 0.849028,-1.173081 0.922527,-1.528849 0.0735,-0.355768 -0.06324,-0.659802 -0.200118,-0.964164"
       id="path1220"
       sodipodi:nodetypes="ccccccc"
       inkscape:original-d="m 52.554764,78.560961 c 0.301447,-0.621903 0.602633,-1.244071 0.903554,-1.866503 0.713103,-0.800764 1.425911,-1.601764 2.138471,-2.403041 0.894279,-0.932011 1.788256,-1.864252 2.681989,-2.796773 0.847675,-1.122693 1.69505,-2.245604 2.54218,-3.368802 0.283829,-0.407496 0.56738,-0.815237 0.850675,-1.223251 -0.136477,-0.303785 -0.273212,-0.607819 -0.410215,-0.912127"
       inkscape:path-effect="#path-effect1222" />
    <path
       style="fill:none;stroke:#000000;stroke-width:2.00000272;stroke-linecap:butt;stroke-linejoin:miter;stroke-miterlimit:4;stroke-dasharray:none;stroke-opacity:1"
       d="m 58.514837,81.788682 c 0.382344,-0.691099 0.764738,-1.382289 1.290781,-2.231277 0.526043,-0.848989 1.195699,-1.855703 1.768664,-2.894978 0.572965,-1.039274 1.049219,-2.111104 1.477307,-3.261182 0.428089,-1.150078 0.807983,-2.378375 1.116407,-3.462554 0.308424,-1.08418 0.545355,-2.0242 0.685879,-2.633377 0.140524,-0.609178 0.184622,-0.887515 0.228755,-1.166077"
       id="path1337"
       sodipodi:nodetypes="ccccccc"
       inkscape:original-d="m 58.514837,81.788682 c 0.382658,-0.690925 0.765053,-1.382115 1.147183,-2.073572 0.669946,-1.006491 1.339601,-2.013206 2.009007,-3.020205 0.476539,-1.07161 0.952794,-2.14344 1.428793,-3.215558 0.380174,-1.228082 0.760068,-2.456379 1.139705,-3.684963 0.237205,-0.939795 0.474136,-1.879815 0.710809,-2.820117 0.04436,-0.278084 0.08846,-0.556421 0.132296,-0.83503"
       inkscape:path-effect="#path-effect1339" />
    <path
       style="fill:none;stroke:#000000;stroke-width:2.00000272;stroke-linecap:butt;stroke-linejoin:miter;stroke-miterlimit:4;stroke-dasharray:none;stroke-opacity:1"
       d="m 65.762068,85.090229 c 0.0089,-0.932368 0.01776,-1.864997 0.09797,-2.850113 0.08021,-0.985116 0.231776,-2.022634 0.395477,-3.075773 0.163701,-1.053138 0.339531,-2.121827 0.497188,-3.020574 0.157657,-0.898746 0.297137,-1.627491 0.392737,-2.402164 0.0956,-0.774674 0.147293,-1.595271 0.222756,-2.606539 0.07546,-1.011267 0.174695,-2.213137 0.227447,-3.076064 0.05275,-0.862927 0.05901,-1.386884 0.06526,-1.911113"
       id="path1341"
       sodipodi:nodetypes="cccccccc"
       inkscape:original-d="m 65.762068,85.090229 c 0.0092,-0.932365 0.01802,-1.864995 0.02664,-2.797889 0.151837,-1.037297 0.303401,-2.074815 0.454705,-3.112619 0.176101,-1.068467 0.35193,-2.137156 0.5275,-3.206131 0.13975,-0.728509 0.279228,-1.457254 0.418446,-2.186276 0.05196,-0.820365 0.103651,-1.640962 0.155081,-2.461839 0.0995,-1.201653 0.198733,-2.403523 0.297703,-3.605681 0.0065,-0.523716 0.01277,-1.047673 0.01876,-1.571905"
       inkscape:path-effect="#path-effect1343" />
    <path
       style="fill:none;stroke:#000000;stroke-width:2.00000272;stroke-linecap:butt;stroke-linejoin:miter;stroke-miterlimit:4;stroke-dasharray:none;stroke-opacity:1"
       d="m 75.656566,84.751785 c -0.579581,-0.875058 -1.159365,-1.750424 -1.707192,-2.693879 -0.547827,-0.943455 -1.063633,-1.954968 -1.454871,-2.905195 -0.391239,-0.950228 -0.65782,-1.839112 -0.912224,-2.923749 -0.254404,-1.084638 -0.49658,-2.364949 -0.67769,-3.595184 -0.18111,-1.230235 -0.301117,-2.410309 -0.406762,-3.477182 -0.105645,-1.066873 -0.19692,-2.020482 -0.288225,-2.974397"
       id="path1345"
       inkscape:original-d="m 75.656566,84.751785 c -0.579519,-0.875099 -1.159304,-1.750465 -1.739352,-2.626096 -0.515565,-1.01129 -1.03137,-2.022803 -1.547453,-3.034604 -0.266327,-0.888653 -0.532908,-1.777537 -0.799759,-2.666703 -0.241919,-1.280097 -0.484094,-2.560408 -0.72654,-3.841007 -0.119745,-1.179856 -0.239755,-2.35993 -0.360029,-3.540294 -0.09101,-0.953381 -0.182288,-1.90699 -0.273831,-2.860882"
       inkscape:path-effect="#path-effect1347" />
    <path
       style="fill:none;stroke:#000000;stroke-width:2.00000272;stroke-linecap:butt;stroke-linejoin:miter;stroke-miterlimit:4;stroke-dasharray:none;stroke-opacity:1"
       d="M 81.451084,81.777834 C 80.813899,81.149656 80.176447,80.521213 79.473414,79.85385 78.77038,79.186487 78.001787,78.480241 77.277312,77.695258 76.552836,76.910274 75.872566,76.046563 75.301529,75.087534 74.730493,74.128505 74.268811,73.074188 73.886988,72.042434 73.505165,71.01068 73.203268,70.001556 72.997199,69.03471 72.79113,68.067864 72.68096,67.143381 72.570754,66.218588"
       id="path1595"
       inkscape:original-d="m 81.451084,81.777834 c -0.637186,-0.628177 -1.274638,-1.25662 -1.912356,-1.885326 -0.768357,-0.706011 -1.536951,-1.412256 -2.305825,-2.118781 -0.680032,-0.86348 -1.360302,-1.727192 -2.04085,-2.591183 -0.461433,-1.054095 -0.923115,-2.108412 -1.385073,-3.163014 -0.301643,-1.008902 -0.603543,-2.018025 -0.905711,-3.027437 -0.10991,-0.924256 -0.22008,-1.848739 -0.330515,-2.773505"
       inkscape:path-effect="#path-effect1597" />
    <path
       style="fill:#502a92;fill-opacity:1;stroke:#000000;stroke-width:2.00000272;stroke-linecap:butt;stroke-linejoin:miter;stroke-miterlimit:4;stroke-dasharray:none;stroke-opacity:1"
       d="m 31.508911,51.783662 c 0.03522,0.330902 0.105622,0.992414 0.474767,1.871071 0.369144,0.878657 1.036843,1.974394 2.203969,3.107196 1.167127,1.132802 2.833487,2.302698 4.877473,3.368198 2.043986,1.0655 4.465449,2.026628 7.295506,2.873515 2.830058,0.846888 6.068544,1.579544 8.290864,2.02582 2.22232,0.446275 3.428375,0.60618 4.42696,0.73701 0.998584,0.13083 1.789646,0.232578 3.491075,0.319011 1.701429,0.08643 4.313129,0.157577 6.670895,0.18882 2.357765,0.03124 4.461467,0.02259 6.228945,0.01743 1.767478,-0.0052 3.198633,-0.0068 4.772165,-0.172568 1.573533,-0.165744 3.289404,-0.495512 4.805365,-0.858477 1.51596,-0.362965 2.831959,-0.759093 4.380224,-1.32657 1.548266,-0.567476 3.328734,-1.306258 4.967961,-2.178754 1.639227,-0.872497 3.137185,-1.878666 4.408488,-2.917062 1.271302,-1.038395 2.315942,-2.108992 3.098282,-3.284535 0.78235,-1.175543 1.3024,-2.456086 1.50638,-3.678788 0.20397,-1.222702 0.0918,-2.387642 -0.24593,-3.708651 -0.33769,-1.32101 -0.90093,-2.798041 -1.80565,-4.616371 -0.90472,-1.81833 -2.150909,-3.977831 -3.304581,-6.017744 -1.153672,-2.039912 -2.214752,-3.960115 -3.590894,-5.811455 -1.376142,-1.851341 -3.06734,-3.633666 -4.820389,-5.16232 -1.75305,-1.528653 -3.567887,-2.803488 -5.440765,-3.853085 -1.872878,-1.049598 -3.803704,-1.873825 -5.897082,-2.546718 -2.093378,-0.672892 -4.34917,-1.194347 -6.532208,-1.4543 -2.183037,-0.259952 -4.293147,-0.258319 -6.272657,-0.176408 -1.97951,0.08191 -3.828278,0.244114 -5.71653,0.583631 -1.888253,0.339517 -3.815814,0.856353 -5.478401,1.492595 -1.662587,0.636242 -3.060021,1.391854 -4.503716,2.344966 -1.443696,0.953112 -2.933506,2.103641 -4.299383,3.2748 -1.365877,1.171159 -2.607708,2.362852 -3.637874,3.577807 -1.030167,1.214955 -1.848563,2.453028 -2.661092,3.859661 -0.812528,1.406634 -1.619127,2.981701 -2.482152,4.704771 -0.863024,1.723071 -1.782418,3.594029 -2.622446,5.428927 -0.840029,1.834897 -1.60064,3.6336 -2.024536,4.903939 -0.423896,1.270339 -0.511086,2.012146 -0.554669,2.382942 -0.04358,0.370796 -0.04358,0.37079 -0.0084,0.701691 z"
       id="path869"
       inkscape:original-d="m 31.473693,51.452761 c 0.07067,0.661778 0.141073,1.32329 0.211214,1.984536 0.667991,1.096047 1.335688,2.191785 2.003136,3.287279 1.666693,1.170209 3.333054,2.340104 4.999183,3.509758 2.421824,0.961433 4.843288,1.922558 7.264533,2.88344 3.238881,0.732949 6.477367,1.465607 9.715653,2.198013 1.206368,0.160176 2.412423,0.32008 3.618235,0.479724 0.791358,0.102018 1.58242,0.203766 2.373231,0.305252 2.612069,0.07141 5.223769,0.142555 7.835259,0.213434 2.104049,-0.0084 4.207751,-0.01704 6.311228,-0.02595 1.431478,-0.0013 2.862633,-0.0031 4.293553,-0.005 1.716203,-0.329517 3.432074,-0.659286 5.147714,-0.989324 1.316318,-0.395881 2.632316,-0.79201 3.948078,-1.188408 1.780808,-0.738548 3.561276,-1.47733 5.34152,-2.216394 1.498282,-1.005943 2.996239,-2.012114 4.493963,-3.018567 1.044947,-1.07038 2.089577,-2.14098 3.133977,-3.211867 0.52034,-1.28033 1.0404,-2.560873 1.56021,-3.841705 -0.11195,-1.164723 -0.22416,-2.329662 -0.33663,-3.494887 -0.563,-1.476827 -1.12624,-2.953858 -1.68976,-4.431183 -1.24598,-2.159326 -2.492163,-4.318831 -3.738645,-6.478643 -1.060857,-1.920013 -2.121937,-3.840216 -3.183302,-5.76072 -1.691003,-1.782133 -3.382201,-3.564459 -5.073698,-5.347085 -1.814645,-1.274622 -3.629483,-2.549456 -5.444622,-3.824581 -1.930635,-0.823995 -3.861461,-1.648222 -5.792589,-2.47273 -2.255618,-0.521212 -4.51141,-1.042667 -6.767512,-1.564398 -2.109928,0.0019 -4.220038,0.0035 -6.330453,0.0049 -1.84858,0.162474 -3.697348,0.324677 -5.546421,0.486618 -1.927373,0.51712 -3.854934,1.033955 -5.782796,1.550536 -1.397225,0.755907 -2.794659,1.511518 -4.192387,2.266881 -1.489607,1.15084 -2.979417,2.301369 -4.469524,3.451657 -1.241615,1.192006 -2.483445,2.3837 -3.725566,3.575153 -0.818166,1.238388 -1.636562,2.476461 -2.455241,3.714295 -0.806368,1.575393 -1.612966,3.15046 -2.419847,4.725295 -0.919168,1.8713 -1.838561,3.742258 -2.758239,5.612992 -0.760378,1.79904 -1.520989,3.597743 -2.28188,5.396219 -0.08693,0.742101 -0.17412,1.483908 -0.261575,2.225466 z"
       inkscape:path-effect="#path-effect871" />
  </g>
</svg>
